<?xml version="1.0" encoding="UTF-8"?> <svg xmlns="http://www.w3.org/2000/svg" xmlns:xlink="http://www.w3.org/1999/xlink" width="250" zoomAndPan="magnify" viewBox="0 0 187.5 37.5" height="50" preserveAspectRatio="xMidYMid meet" version="1.0"><defs><g></g><clipPath id="43b8bd84ee"><path d="M 2.472656 3.710938 L 30 3.710938 L 30 30.425781 L 2.472656 30.425781 Z M 2.472656 3.710938 " clip-rule="nonzero"></path></clipPath><clipPath id="498429efdb"><path d="M 8 12 L 35.867188 12 L 35.867188 28 L 8 28 Z M 8 12 " clip-rule="nonzero"></path></clipPath></defs><g clip-path="url(#43b8bd84ee)"><path fill="#9900cc" d="M 16.375 20.078125 L 7.574219 13.402344 L 7.574219 30.425781 L 2.507812 30.425781 L 2.507812 3.710938 L 10.917969 10.089844 L 16.375 14.230469 L 29.734375 3.902344 L 29.734375 9.945312 L 20.230469 17.15625 L 19.058594 18.042969 Z M 24.652344 22.757812 L 24.667969 30.425781 L 29.734375 30.425781 L 29.71875 18.914062 Z M 24.652344 22.757812 " fill-opacity="1" fill-rule="nonzero"></path></g><g clip-path="url(#498429efdb)"><path fill="#22002d" d="M 28.117188 12.699219 L 16.375 21.609375 L 8.871094 15.914062 L 8.871094 21.765625 L 16.375 27.457031 L 35.828125 12.699219 Z M 28.117188 12.699219 " fill-opacity="1" fill-rule="nonzero"></path></g><g fill="#22002d" fill-opacity="1"><g transform="translate(31.475973, 29.954532)"><g><path d="M 14.65625 0 L 1.25 0 L 1.25 -11.140625 L 14.046875 -11.140625 L 14.046875 -8.390625 L 5.921875 -8.390625 L 5.921875 -6.640625 L 12.796875 -6.640625 L 12.796875 -4.5 L 5.921875 -4.5 L 5.921875 -2.75 L 14.65625 -2.75 Z M 14.65625 0 "></path></g></g></g><g fill="#22002d" fill-opacity="1"><g transform="translate(46.757799, 29.954532)"><g><path d="M 17.78125 0 L 12.21875 0 L 5.921875 -7.546875 L 5.921875 0 L 1.25 0 L 1.25 -11.140625 L 6.796875 -11.140625 L 13.109375 -3.640625 L 13.109375 -11.140625 L 17.78125 -11.140625 Z M 17.78125 0 "></path></g></g></g><g fill="#22002d" fill-opacity="1"><g transform="translate(65.774671, 29.954532)"><g><path d="M 9.5 0 L 4.828125 0 L 4.828125 -8.390625 L 0.46875 -8.390625 L 0.46875 -11.140625 L 13.875 -11.140625 L 13.875 -8.390625 L 9.5 -8.390625 Z M 9.5 0 "></path></g></g></g><g fill="#22002d" fill-opacity="1"><g transform="translate(80.109147, 29.954532)"><g><path d="M 5.921875 0 L 1.25 0 L 1.25 -11.140625 L 5.921875 -11.140625 Z M 5.921875 0 "></path></g></g></g><g fill="#22002d" fill-opacity="1"><g transform="translate(87.26862, 29.954532)"><g><path d="M 8.421875 0.234375 C 5.671875 0.234375 3.644531 -0.328125 2.34375 -1.453125 C 1.195312 -2.460938 0.625 -3.832031 0.625 -5.5625 C 0.625 -7.289062 1.195312 -8.660156 2.34375 -9.671875 C 3.644531 -10.804688 5.671875 -11.375 8.421875 -11.375 C 11.179688 -11.375 13.210938 -10.804688 14.515625 -9.671875 C 15.660156 -8.660156 16.234375 -7.289062 16.234375 -5.5625 C 16.234375 -3.832031 15.660156 -2.460938 14.515625 -1.453125 C 13.210938 -0.328125 11.179688 0.234375 8.421875 0.234375 Z M 8.421875 -2.75 C 9.554688 -2.75 10.382812 -3.070312 10.90625 -3.71875 C 11.332031 -4.238281 11.546875 -4.851562 11.546875 -5.5625 C 11.546875 -6.269531 11.332031 -6.882812 10.90625 -7.40625 C 10.382812 -8.0625 9.554688 -8.390625 8.421875 -8.390625 C 7.296875 -8.390625 6.46875 -8.0625 5.9375 -7.40625 C 5.507812 -6.882812 5.296875 -6.269531 5.296875 -5.5625 C 5.296875 -4.851562 5.507812 -4.238281 5.9375 -3.71875 C 6.46875 -3.070312 7.296875 -2.75 8.421875 -2.75 Z M 8.421875 -2.75 "></path></g></g></g><g fill="#22002d" fill-opacity="1"><g transform="translate(104.119007, 29.954532)"><g><path d="M 17.78125 0 L 12.21875 0 L 5.921875 -7.546875 L 5.921875 0 L 1.25 0 L 1.25 -11.140625 L 6.796875 -11.140625 L 13.109375 -3.640625 L 13.109375 -11.140625 L 17.78125 -11.140625 Z M 17.78125 0 "></path></g></g></g><g fill="#22002d" fill-opacity="1"><g transform="translate(123.135878, 29.954532)"><g><path d="M 5.921875 0 L 1.25 0 L 1.25 -11.140625 L 14.046875 -11.140625 L 14.046875 -8.390625 L 5.921875 -8.390625 L 5.921875 -6.640625 L 12.796875 -6.640625 L 12.796875 -4.5 L 5.921875 -4.5 Z M 5.921875 0 "></path></g></g></g><g fill="#22002d" fill-opacity="1"><g transform="translate(137.804263, 29.954532)"><g><path d="M 10.875 0 L 6.203125 0 L 6.203125 -5.28125 L 0.109375 -11.140625 L 5.296875 -11.140625 L 8.53125 -7.8125 L 11.765625 -11.140625 L 16.953125 -11.140625 L 10.875 -5.28125 Z M 10.875 0 "></path></g></g></g><g fill="#22002d" fill-opacity="1"><g transform="translate(154.864315, 29.954532)"><g><path d="M 7.84375 0.234375 C 5.125 0.234375 3.207031 -0.328125 2.09375 -1.453125 C 1.164062 -2.398438 0.703125 -3.769531 0.703125 -5.5625 L 0.703125 -11.140625 L 5.375 -11.140625 L 5.375 -5.5625 C 5.375 -4.78125 5.503906 -4.164062 5.765625 -3.71875 C 6.148438 -3.070312 6.84375 -2.75 7.84375 -2.75 C 8.84375 -2.75 9.53125 -3.070312 9.90625 -3.71875 C 10.175781 -4.1875 10.3125 -4.800781 10.3125 -5.5625 L 10.3125 -11.140625 L 14.984375 -11.140625 L 14.984375 -5.5 C 14.984375 -3.75 14.519531 -2.398438 13.59375 -1.453125 C 12.476562 -0.328125 10.5625 0.234375 7.84375 0.234375 Z M 7.84375 0.234375 "></path></g></g></g><g fill="#22002d" fill-opacity="1"><g transform="translate(170.54217, 29.954532)"><g><path d="M 7.359375 0.234375 C 5.859375 0.234375 4.644531 0.0703125 3.71875 -0.25 C 2.800781 -0.570312 2.097656 -1.015625 1.609375 -1.578125 C 1.128906 -2.148438 0.804688 -2.804688 0.640625 -3.546875 L 5.609375 -3.546875 C 5.972656 -3.015625 6.554688 -2.75 7.359375 -2.75 C 8.160156 -2.75 8.75 -3.015625 9.125 -3.546875 C 9.15625 -3.597656 9.171875 -3.644531 9.171875 -3.6875 C 9.171875 -3.820312 8.984375 -3.921875 8.609375 -3.984375 C 8.234375 -4.054688 7.679688 -4.113281 6.953125 -4.15625 C 6.023438 -4.195312 5.050781 -4.296875 4.03125 -4.453125 C 1.757812 -4.804688 0.625 -5.71875 0.625 -7.1875 C 0.625 -7.3125 0.628906 -7.445312 0.640625 -7.59375 C 0.804688 -8.332031 1.128906 -8.984375 1.609375 -9.546875 C 2.097656 -10.117188 2.800781 -10.566406 3.71875 -10.890625 C 4.644531 -11.210938 5.859375 -11.375 7.359375 -11.375 C 8.867188 -11.375 10.082031 -11.210938 11 -10.890625 C 11.925781 -10.566406 12.628906 -10.117188 13.109375 -9.546875 C 13.585938 -8.984375 13.910156 -8.332031 14.078125 -7.59375 L 9.125 -7.59375 C 8.75 -8.113281 8.160156 -8.375 7.359375 -8.375 C 6.554688 -8.375 5.972656 -8.113281 5.609375 -7.59375 C 5.578125 -7.550781 5.5625 -7.507812 5.5625 -7.46875 C 5.5625 -7.34375 5.738281 -7.25 6.09375 -7.1875 C 6.445312 -7.132812 6.96875 -7.085938 7.65625 -7.046875 C 8.351562 -7.003906 9.09375 -6.9375 9.875 -6.84375 C 10.65625 -6.75 11.382812 -6.585938 12.0625 -6.359375 C 12.75 -6.128906 13.285156 -5.785156 13.671875 -5.328125 C 13.972656 -4.984375 14.125 -4.546875 14.125 -4.015625 C 14.125 -3.867188 14.109375 -3.710938 14.078125 -3.546875 C 13.910156 -2.804688 13.585938 -2.148438 13.109375 -1.578125 C 12.628906 -1.015625 11.925781 -0.570312 11 -0.25 C 10.082031 0.0703125 8.867188 0.234375 7.359375 0.234375 Z M 7.359375 0.234375 "></path></g></g></g></svg> 